<?xml version="1.0" encoding="utf-8"?>
<!-- Generator: Adobe Illustrator 21.0.2, SVG Export Plug-In . SVG Version: 6.00 Build 0)  -->
<svg version="1.1" id="Layer_1" xmlns="http://www.w3.org/2000/svg" xmlns:xlink="http://www.w3.org/1999/xlink" x="0px" y="0px"
	 viewBox="0 0 50 50" style="enable-background:new 0 0 50 50;" xml:space="preserve">
<style type="text/css">
	.st0{fill-rule:evenodd;clip-rule:evenodd;fill:#FFFDFD;}
</style>
<path class="st0" d="M25,50C11.2,50,0,38.8,0,25S11.2,0,25,0s25,11.2,25,25S38.8,50,25,50z M46.1,28.4c-0.7-0.2-6.6-2-13.3-0.9
	c2.8,7.7,3.9,13.9,4.1,15.2C41.7,39.5,45.1,34.4,46.1,28.4z M33.3,44.7c-0.3-1.9-1.6-8.4-4.6-16.2c0,0-0.1,0-0.1,0
	c-12,4.2-16.4,12.5-16.8,13.3c3.6,2.8,8.2,4.5,13.1,4.5C28,46.4,30.8,45.8,33.3,44.7z M9.1,39.3c0.5-0.8,6.3-10.5,17.4-14.1
	c0.3-0.1,0.6-0.2,0.8-0.3c-0.5-1.2-1.1-2.4-1.7-3.6c-10.7,3.2-21,3.1-21.9,3c0,0.2,0,0.4,0,0.7C3.6,30.5,5.7,35.5,9.1,39.3z
	 M4.1,20.7c1,0,9.8,0.1,19.7-2.6c-3.5-6.3-7.4-11.6-7.9-12.3C9.9,8.5,5.5,14,4.1,20.7z M20,4.3c0.6,0.8,4.5,6.1,8,12.5
	c7.6-2.8,10.8-7.2,11.2-7.7C35.4,5.7,30.4,3.7,25,3.7C23.3,3.7,21.6,3.9,20,4.3z M41.5,11.5c-0.5,0.6-4,5.2-11.9,8.4
	c0.5,1,1,2.1,1.4,3.1c0.2,0.4,0.3,0.7,0.5,1.1c7.1-0.9,14.2,0.5,14.9,0.7C46.3,19.8,44.5,15.2,41.5,11.5z"/>
</svg>
