<?xml version="1.0" encoding="utf-8"?>
<!-- Generator: Adobe Illustrator 21.0.2, SVG Export Plug-In . SVG Version: 6.00 Build 0)  -->
<svg version="1.1" id="Layer_1" xmlns="http://www.w3.org/2000/svg" xmlns:xlink="http://www.w3.org/1999/xlink" x="0px" y="0px"
	 viewBox="0 0 50 50" style="enable-background:new 0 0 50 50;" xml:space="preserve">
<style type="text/css">
	.st0{fill:#FCFCFC;}
</style>
<path class="st0" d="M47.9,0H2.1C0.9,0,0,0.9,0,2.1v45.8C0,49.1,0.9,50,2.1,50h45.8c1.2,0,2.1-0.9,2.1-2.1V2.1C50,0.9,49.1,0,47.9,0
	z M14.8,42.6H7.4V18.7h7.4V42.6z M11.1,15.5c-2.4,0-4.3-1.9-4.3-4.3c0-2.4,1.9-4.3,4.3-4.3c2.4,0,4.3,1.9,4.3,4.3
	C15.4,13.6,13.5,15.5,11.1,15.5z M42.6,42.6h-7.4V31c0-2.8,0-6.3-3.9-6.3c-3.9,0-4.4,3-4.4,6.1v11.8h-7.4V18.7h7.1V22h0.1
	c1-1.9,3.4-3.9,7-3.9c7.5,0,8.9,4.9,8.9,11.4V42.6z"/>
</svg>
