<?xml version="1.0" encoding="utf-8"?>
<!-- Generator: Adobe Illustrator 21.0.2, SVG Export Plug-In . SVG Version: 6.00 Build 0)  -->
<svg version="1.1" id="Layer_1" xmlns="http://www.w3.org/2000/svg" xmlns:xlink="http://www.w3.org/1999/xlink" x="0px" y="0px"
	 viewBox="0 0 921 182" style="enable-background:new 0 0 921 182;" xml:space="preserve">
<style type="text/css">
	.st0{fill:#DEA35A;}
</style>
<path class="st0" d="M0,0v182h921V0H0z M148.8,167.4l-49.6-36l-49.7,36l19-58.3L18.8,73h61.4l19-58.4L118,73h61.4l-49.7,36.1
	L148.8,167.4z M329.5,167.4l-49.6-36l-49.7,36l19-58.3L199.5,73h61.4l19-58.4L298.8,73h61.4l-49.7,36.1L329.5,167.4z M510.2,167.4
	l-49.6-36l-49.7,36l19-58.3L380.2,73h61.4l19-58.4L479.5,73h61.4l-49.7,36.1L510.2,167.4z M690.8,167.4l-49.6-36l-49.7,36l19-58.3
	L560.8,73h61.4l19-58.4L660.2,73h61.4l-49.7,36.1L690.8,167.4z M871.5,167.4l-49.6-36l-49.7,36l19-58.3L741.5,73H803l19-58.4
	L840.8,73h61.4l-49.7,36.1L871.5,167.4z"/>
</svg>
