<?xml version="1.0" encoding="utf-8"?>
<!-- Generator: Adobe Illustrator 21.0.2, SVG Export Plug-In . SVG Version: 6.00 Build 0)  -->
<svg version="1.1" id="Layer_1" xmlns="http://www.w3.org/2000/svg" xmlns:xlink="http://www.w3.org/1999/xlink" x="0px" y="0px"
	 viewBox="0 0 435.6 103.6" style="enable-background:new 0 0 435.6 103.6;" xml:space="preserve">
<style type="text/css">
	.st0{fill:#DEA35A;}
</style>
<path class="st0" d="M110.4,65.9c-0.5,0-1.8,0-3.5-0.3c-2.2-0.4-6-1.3-10.8-6.4c-2-2.1-4.1-4.6-6.4-7.4c2.3-2.8,4.4-5.3,6.4-7.4
	c4.8-5.1,8.6-6,10.8-6.4c1.7-0.3,2.9-0.3,3.5-0.3c0.4,0,0.8-0.3,0.8-0.5c0-0.5-0.5-0.7-2.1-0.7h-6.3c-5,0-7.2,0.4-9.5,1.7
	c-2.7,1.5-5.1,4.1-8.1,8c-2.3-3-4.8-6.2-7.5-9.6c8-7.4,10.7-13.9,10.7-20.5c0-6.1-3.9-10.5-6.1-12.1C77.5,0.5,71.6,0,66,0
	c-0.1,0-0.1,0-0.2,0l0,0c-3.5,0-8.3,0.2-9.7,0.3c-0.2,0-0.3,0-0.4,0c-0.1,0-0.3,0-0.4,0C53.8,0.2,49,0,45.4,0l0,0
	c-0.1,0-0.1,0-0.2,0C39.6,0,33.7,0.5,29,3.9c-2.2,1.6-6.1,6-6.1,12.1c0,6.6,2.8,13.1,10.7,20.5c-2.7,3.4-5.2,6.6-7.5,9.6
	c-3-3.9-5.4-6.5-8.1-8c-2.3-1.2-4.5-1.7-9.5-1.7H2.1c-1.6,0-2.1,0.2-2.1,0.7c0,0.3,0.4,0.5,0.8,0.5c0.5,0,1.8,0,3.5,0.3
	c2.2,0.4,6,1.3,10.8,6.4c2,2.1,4.1,4.6,6.4,7.4c-2.3,2.8-4.4,5.3-6.4,7.4c-4.8,5.1-8.6,6-10.8,6.4c-1.7,0.3-2.9,0.3-3.5,0.3
	c-0.4,0-0.8,0.3-0.8,0.5C0,66.8,0.5,67,2.1,67h6.3c5,0,7.2-0.4,9.5-1.7c2.7-1.5,5.1-4.1,8.1-8c2.3,3,4.8,6.2,7.5,9.6
	c-8,7.4-10.7,13.9-10.7,20.5c0,6.1,3.9,10.5,6.1,12.1c4.7,3.4,10.7,3.9,16.3,3.9c0.1,0,0.1,0,0.2,0l0,0c3.5,0,8.4-0.2,9.7-0.3
	c0.2,0,0.3,0,0.4,0c0.1,0,0.3,0,0.4,0c1.3,0,6.1,0.3,9.7,0.3l0,0c0.1,0,0.1,0,0.2,0c5.6,0,11.5-0.5,16.3-3.9c2.2-1.6,6.1-6,6.1-12.1
	c0-6.6-2.8-13.1-10.7-20.5c2.7-3.4,5.2-6.6,7.5-9.6c3,3.9,5.4,6.5,8.1,8c2.3,1.2,4.5,1.7,9.5,1.7h6.3c1.6,0,2.1-0.2,2.1-0.7
	C111.2,66.2,110.8,65.9,110.4,65.9z M59.4,25.8c0-13.9,0-16.3,0.2-19.2c0.1-1.5,0.3-2.6,0.8-3.4c1.2-0.2,3-0.3,5.1-0.3
	c9.5,0,15.4,6.7,15.4,17.8c0,6.8-2.3,11.5-5.4,13.7c-2,1.4-4.5,1.7-6.7,1.7c-3.9,0-8-0.6-9.3-1.4c0,0,0,0-0.1,0
	C59.4,34.7,59.4,25.8,59.4,25.8z M30.3,20.6c0-11.1,5.9-17.8,15.4-17.8c2,0,3.9,0.2,5.1,0.3c0.5,0.8,0.8,1.9,0.8,3.4
	c0.2,2.8,0.2,5.3,0.2,19.2v8.7c0,0,0,0-0.1,0c-1.3,0.8-5.4,1.4-9.3,1.4c-2.1,0-4.6-0.3-6.7-1.7C32.6,32.2,30.3,27.4,30.3,20.6z
	 M30.4,51.8c3.6-4.8,7.5-10.3,9.2-12.5c0.4-0.4,0.6-0.5,1.2-0.5l9.1-0.1c0.9,0.8,1.2,2.4,1.5,4.3c0.2,2.1,0.4,5.1,0.4,8.9
	c0,3.8-0.2,6.8-0.4,8.9c-0.3,1.9-0.6,3.5-1.5,4.3L40.8,65c-0.5,0-0.8-0.2-1.2-0.5C37.9,62.1,34,56.6,30.4,51.8z M51.8,77.8
	c0,13.9,0,16.3-0.2,19.2c-0.1,1.5-0.3,2.6-0.8,3.4c-1.2,0.2-3,0.3-5.1,0.3c-9.5,0-15.4-6.7-15.4-17.8c0-6.8,2.3-11.5,5.4-13.7
	c2-1.4,4.5-1.7,6.7-1.7c3.9,0,8,0.6,9.3,1.4c0,0,0,0,0.1,0V77.8z M80.9,83c0,11.1-5.9,17.8-15.4,17.8c-2,0-3.9-0.2-5.1-0.3
	c-0.5-0.8-0.8-1.9-0.8-3.4c-0.2-2.8-0.2-5.3-0.2-19.2v-8.7c0,0,0,0,0.1,0c1.3-0.8,5.4-1.4,9.3-1.4c2.1,0,4.6,0.3,6.7,1.7
	C78.6,71.4,80.9,76.2,80.9,83z M71.6,64.3c-0.4,0.4-0.6,0.5-1.2,0.5l-9,0.2c-0.9-0.8-1.2-2.4-1.5-4.3c-0.2-2.1-0.4-5.1-0.4-8.9
	s0.2-6.8,0.4-8.9c0.3-1.9,0.6-3.5,1.5-4.3l9.1,0.1c0.5,0,0.8,0.2,1.2,0.5c1.7,2.2,5.6,7.8,9.2,12.5C77.2,56.6,73.3,62.1,71.6,64.3z"
	/>
<g>
	<path class="st0" d="M130.4,45.8c0-10.6,0-12.5-0.2-14.7c-0.2-2.3-0.6-3.5-2.9-3.8c-0.6-0.1-1.8-0.2-2.4-0.2
		c-0.2,0-0.6-0.3-0.6-0.6c0-0.4,0.3-0.6,1.1-0.6c3.2,0,8,0.2,8.4,0.2c0.7,0,6.7-0.2,8.8-0.2c4.5,0,9.5,0.4,13.2,3
		c1.8,1.3,4.9,4.6,4.9,9.3c0,5.1-2.1,10-8.7,15.6c5.8,7.2,10.7,13.4,14.8,17.7c3.8,3.9,6.1,4.5,7.9,4.7c1.4,0.2,2.1,0.2,2.5,0.2
		s0.6,0.3,0.6,0.6c0,0.4-0.4,0.6-1.7,0.6h-4.4c-4,0-5.8-0.4-7.5-1.4c-3.1-1.6-5.6-4.9-9.6-10c-3-3.7-6.1-8.1-7.6-10
		c-0.3-0.3-0.5-0.4-1-0.4l-9-0.2c-0.3,0-0.5,0.2-0.5,0.6V58c0,6.6,0,11.9,0.3,14.7c0.2,2,0.6,3.3,2.8,3.6c1,0.2,2.5,0.3,3.1,0.3
		c0.5,0,0.6,0.3,0.6,0.6c0,0.3-0.3,0.6-1.1,0.6c-3.9,0-8.4-0.2-8.7-0.2c-0.1,0-4.8,0.2-7,0.2c-0.7,0-1.1-0.2-1.1-0.6
		c0-0.2,0.2-0.6,0.6-0.6c0.6,0,1.5-0.2,2.2-0.3c1.4-0.3,1.5-1.6,1.8-3.6c0.4-2.8,0.4-8.2,0.4-14.8V45.8z M136.5,51.6
		c0,0.4,0.2,0.6,0.5,0.9c1,0.6,4.7,1,7.8,1c1.7,0,3.6-0.1,5.3-1.2c2.4-1.6,4.3-5.2,4.3-10.4c0-8.5-4.7-13.4-12.2-13.4
		c-2.1,0-4.3,0.2-5.1,0.4c-0.3,0.2-0.6,0.4-0.6,0.8V51.6z"/>
	<path class="st0" d="M184.4,45.8c0-10.6,0-12.5-0.2-14.7c-0.2-2.3-0.6-3.5-2.9-3.8c-0.6-0.1-1.8-0.2-2.4-0.2
		c-0.2,0-0.6-0.3-0.6-0.6c0-0.4,0.3-0.6,1.1-0.6c3.2,0,7.8,0.2,8.2,0.2c0.5,0,15.3,0.1,16.9,0c1.4-0.1,2.7-0.3,3.2-0.4
		c0.3-0.1,0.6-0.3,1-0.3c0.2,0,0.3,0.3,0.3,0.6c0,0.5-0.4,1.3-0.6,3.2c-0.1,0.6-0.2,3.7-0.4,4.5c-0.1,0.3-0.3,0.7-0.6,0.7
		c-0.4,0-0.6-0.3-0.6-0.9c0-0.5-0.1-1.6-0.4-2.4c-0.5-1.1-1.2-1.6-5.1-2.1c-1.2-0.2-9.4-0.2-10.2-0.2c-0.3,0-0.4,0.2-0.4,0.7v18.6
		c0,0.5,0,0.7,0.4,0.7c0.9,0,10.2,0,11.8-0.2c1.7-0.2,2.7-0.2,3.5-1c0.5-0.5,0.8-0.9,1-0.9s0.4,0.2,0.4,0.6c0,0.4-0.4,1.5-0.6,3.8
		c-0.2,1.4-0.3,3.9-0.3,4.4c0,0.6-0.2,1.3-0.6,1.3c-0.3,0-0.5-0.2-0.5-0.6c0-0.6,0-1.4-0.3-2.2c-0.2-1-0.9-1.8-3.6-2.1
		c-1.9-0.2-9.5-0.3-10.7-0.3c-0.4,0-0.5,0.2-0.5,0.5v5.7c0,2.3-0.1,10.3,0,11.6c0.2,4.6,1.4,5.5,8.4,5.5c1.8,0,5.2,0,7.1-0.7
		c1.8-0.8,2.8-2,3.2-4.7c0.2-0.8,0.3-1,0.7-1s0.5,0.6,0.5,1c0,0.5-0.6,5.1-1,6.6c-0.5,1.8-1.2,1.8-3.9,1.8c-5.3,0-9.4-0.2-12.3-0.2
		c-3-0.2-4.8-0.2-5.9-0.2c-0.2,0-1.5,0-3.1,0.1c-1.4,0.1-3,0.2-4.1,0.2c-0.7,0-1.1-0.2-1.1-0.6c0-0.2,0.2-0.6,0.6-0.6
		c0.6,0,1.5-0.2,2.2-0.3c1.4-0.2,1.5-1.6,1.8-3.6c0.4-2.8,0.4-8.2,0.4-14.8V45.8H184.4z"/>
	<path class="st0" d="M231.6,68.4c0.2,5.6,0.8,7.3,2.7,7.8c1.3,0.3,2.9,0.4,3.5,0.4c0.3,0,0.6,0.2,0.6,0.6s-0.5,0.6-1.3,0.6
		c-4,0-6.8-0.2-7.5-0.2c-0.6,0-3.6,0.2-6.8,0.2c-0.7,0-1.1-0.1-1.1-0.6c0-0.3,0.2-0.6,0.6-0.6c0.6,0,1.8-0.1,2.9-0.4
		c1.8-0.5,2-2.3,2-8.5V28.6c0-2.7,0.4-3.5,1-3.5c0.8,0,2,1.4,2.7,2.1c1.1,1.1,11.4,12,22.3,23.3c7,7.2,14.5,15.3,16.7,17.6
		l-0.7-34.2c-0.1-4.4-0.5-5.9-2.7-6.3c-1.3-0.2-2.9-0.3-3.5-0.3c-0.5,0-0.6-0.4-0.6-0.6c0-0.4,0.6-0.5,1.4-0.5
		c3.2,0,6.6,0.2,7.4,0.2s3.1-0.2,6-0.2c0.7,0,1.3,0.1,1.3,0.5c0,0.2-0.3,0.6-0.8,0.6c-0.3,0-0.9,0-1.7,0.2c-2.3,0.5-2.5,1.8-2.5,5.9
		l-0.2,40c0,4.5-0.1,4.9-0.6,4.9c-0.7,0-1.4-0.6-5.4-4.2c-0.7-0.6-10.9-10.7-18.4-18.5c-8.2-8.6-16.1-16.9-18.3-19.4L231.6,68.4z"/>
	<path class="st0" d="M306.3,27.5c0.9-2.2,1.2-2.7,1.7-2.7c0.7,0,1,1,1.7,2.5c1.3,2.9,12.6,31.1,16.9,41.4c2.6,6.1,4.5,7,6,7.5
		c1,0.3,2.1,0.4,2.8,0.4c0.4,0,0.9,0.2,0.9,0.6s-0.8,0.6-1.6,0.6c-1,0-6.3,0-11.2-0.2c-1.4-0.1-2.5-0.1-2.5-0.5
		c0-0.3,0.2-0.3,0.5-0.5c0.4-0.2,1.1-0.7,0.6-1.8l-6.3-15.7c-0.2-0.3-0.2-0.4-0.6-0.4h-16.3c-0.3,0-0.6,0.2-0.7,0.6l-4,10.9
		c-0.6,1.7-1,3.4-1,4.6c0,1.4,1.2,1.8,2.4,1.8h0.6c0.6,0,0.7,0.2,0.7,0.6s-0.4,0.6-1,0.6c-1.7,0-5.5-0.2-6.3-0.2
		c-0.7,0-4.3,0.2-7.1,0.2c-0.9,0-1.4-0.2-1.4-0.6c0-0.3,0.3-0.6,0.6-0.6c0.5,0,1.5-0.1,2.1-0.2c3.2-0.4,4.6-2.8,5.9-6.3L306.3,27.5z
		 M314.1,55.9c0.3,0,0.3-0.2,0.2-0.5l-7-18.7c-0.4-1-0.8-1-1.2,0l-6.6,18.7c-0.1,0.3,0,0.5,0.2,0.5H314.1z"/>
	<path class="st0" d="M355.9,57.9c0,6.6,0,12,0.3,14.8c0.2,2,0.6,3.3,2.7,3.6c1,0.2,2.6,0.3,3.2,0.3c0.5,0,0.6,0.3,0.6,0.6
		c0,0.3-0.3,0.6-1.1,0.6c-3.9,0-8.4-0.2-8.8-0.2c-0.3,0-5.2,0.2-7.3,0.2c-0.8,0-1.1-0.2-1.1-0.6c0-0.2,0.2-0.5,0.6-0.5
		c0.6,0,1.4-0.2,2.1-0.3c1.4-0.3,1.8-1.7,2.1-3.7c0.3-2.8,0.3-8.2,0.3-14.8V29.2l-10.2,0.2c-4.4,0.1-6.1,0.6-7.1,2.2
		c-0.8,1.2-0.9,1.7-1.1,2.2c-0.2,0.6-0.4,0.6-0.7,0.6c-0.2,0-0.5-0.2-0.5-0.6c0-0.7,1.4-6.8,1.5-7.4c0.1-0.4,0.5-1.3,0.7-1.3
		c0.5,0,1.2,0.6,3.1,0.8c2,0.2,4.7,0.3,5.5,0.3h26.7c2.3,0,3.9-0.2,5.1-0.3c1-0.2,1.7-0.3,2-0.3s0.3,0.4,0.3,0.8
		c0,2.1-0.2,7-0.2,7.8c0,0.6-0.3,0.9-0.6,0.9c-0.3,0-0.5-0.2-0.6-1.2l-0.1-0.7c-0.2-2.1-1.8-3.6-8.5-3.8l-8.8-0.2v28.7
		C356,57.9,355.9,57.9,355.9,57.9z"/>
	<path class="st0" d="M407.6,25.1c15.9,0,27.9,9.7,27.9,25.6c0,15.3-11.3,27.9-28.4,27.9c-19.4,0-27.6-14.5-27.6-26.8
		C379.6,40.8,388.1,25.1,407.6,25.1z M409.2,75.8c6.3,0,19.1-3.4,19.1-23.1c0-16.4-10-25-21.1-25c-11.8,0-20.3,7.4-20.3,22.2
		C386.9,65.8,396.5,75.8,409.2,75.8z"/>
</g>
</svg>
