<?xml version="1.0" encoding="utf-8"?>
<!-- Generator: Adobe Illustrator 21.0.2, SVG Export Plug-In . SVG Version: 6.00 Build 0)  -->
<svg version="1.1" id="Layer_1" xmlns="http://www.w3.org/2000/svg" xmlns:xlink="http://www.w3.org/1999/xlink" x="0px" y="0px"
	 viewBox="0 0 111.2 103.6" style="enable-background:new 0 0 111.2 103.6;" xml:space="preserve">
<style type="text/css">
	.st0{fill:#FFFFFF;}
</style>
<path class="st0" d="M110.4,65.9c-0.5,0-1.8,0-3.5-0.3c-2.2-0.4-6-1.3-10.8-6.4c-2-2.1-4.1-4.6-6.4-7.4c2.3-2.8,4.4-5.3,6.4-7.4
	c4.8-5.1,8.6-6,10.8-6.4c1.7-0.3,2.9-0.3,3.5-0.3c0.4,0,0.8-0.3,0.8-0.5c0-0.5-0.5-0.7-2.1-0.7h-6.3c-5,0-7.2,0.4-9.5,1.7
	c-2.7,1.5-5.1,4.1-8.1,8c-2.3-3-4.8-6.2-7.5-9.6c8-7.4,10.7-13.9,10.7-20.5c0-6.1-3.9-10.5-6.1-12.1C77.5,0.5,71.6,0,66,0
	c-0.1,0-0.1,0-0.2,0l0,0c-3.5,0-8.3,0.2-9.7,0.3c-0.2,0-0.3,0-0.4,0c-0.1,0-0.3,0-0.4,0C53.8,0.2,49,0,45.4,0l0,0
	c-0.1,0-0.1,0-0.2,0C39.6,0,33.7,0.5,29,3.9c-2.2,1.6-6.1,6-6.1,12.1c0,6.6,2.8,13.1,10.7,20.5c-2.7,3.4-5.2,6.6-7.5,9.6
	c-3-3.9-5.4-6.5-8.1-8c-2.3-1.2-4.5-1.7-9.5-1.7H2.1c-1.6,0-2.1,0.2-2.1,0.7c0,0.3,0.4,0.5,0.8,0.5c0.5,0,1.8,0,3.5,0.3
	c2.2,0.4,6,1.3,10.8,6.4c2,2.1,4.1,4.6,6.4,7.4c-2.3,2.8-4.4,5.3-6.4,7.4c-4.8,5.1-8.6,6-10.8,6.4c-1.7,0.3-2.9,0.3-3.5,0.3
	c-0.4,0-0.8,0.3-0.8,0.5C0,66.8,0.5,67,2.1,67h6.3c5,0,7.2-0.4,9.5-1.7c2.7-1.5,5.1-4.1,8.1-8c2.3,3,4.8,6.2,7.5,9.6
	c-8,7.4-10.7,13.9-10.7,20.5c0,6.1,3.9,10.5,6.1,12.1c4.7,3.4,10.7,3.9,16.3,3.9c0.1,0,0.1,0,0.2,0l0,0c3.5,0,8.4-0.2,9.7-0.3
	c0.2,0,0.3,0,0.4,0c0.1,0,0.3,0,0.4,0c1.3,0,6.1,0.3,9.7,0.3l0,0c0.1,0,0.1,0,0.2,0c5.6,0,11.5-0.5,16.3-3.9c2.2-1.6,6.1-6,6.1-12.1
	c0-6.6-2.8-13.1-10.7-20.5c2.7-3.4,5.2-6.6,7.5-9.6c3,3.9,5.4,6.5,8.1,8c2.3,1.2,4.5,1.7,9.5,1.7h6.3c1.6,0,2.1-0.2,2.1-0.7
	C111.2,66.2,110.8,65.9,110.4,65.9z M59.4,25.8c0-13.9,0-16.3,0.2-19.2c0.1-1.5,0.3-2.6,0.8-3.4c1.2-0.2,3-0.3,5.1-0.3
	c9.5,0,15.4,6.7,15.4,17.8c0,6.8-2.3,11.5-5.4,13.7c-2,1.4-4.5,1.7-6.7,1.7c-3.9,0-8-0.6-9.3-1.4c0,0,0,0-0.1,0
	C59.4,34.7,59.4,25.8,59.4,25.8z M30.3,20.6c0-11.1,5.9-17.8,15.4-17.8c2,0,3.9,0.2,5.1,0.3c0.5,0.8,0.8,1.9,0.8,3.4
	c0.2,2.8,0.2,5.3,0.2,19.2v8.7c0,0,0,0-0.1,0c-1.3,0.8-5.4,1.4-9.3,1.4c-2.1,0-4.6-0.3-6.7-1.7C32.6,32.2,30.3,27.4,30.3,20.6z
	 M30.4,51.8c3.6-4.8,7.5-10.3,9.2-12.5c0.4-0.4,0.6-0.5,1.2-0.5l9.1-0.1c0.9,0.8,1.2,2.4,1.5,4.3c0.2,2.1,0.4,5.1,0.4,8.9
	c0,3.8-0.2,6.8-0.4,8.9c-0.3,1.9-0.6,3.5-1.5,4.3L40.8,65c-0.5,0-0.8-0.2-1.2-0.5C37.9,62.1,34,56.6,30.4,51.8z M51.8,77.8
	c0,13.9,0,16.3-0.2,19.2c-0.1,1.5-0.3,2.6-0.8,3.4c-1.2,0.2-3,0.3-5.1,0.3c-9.5,0-15.4-6.7-15.4-17.8c0-6.8,2.3-11.5,5.4-13.7
	c2-1.4,4.5-1.7,6.7-1.7c3.9,0,8,0.6,9.3,1.4c0,0,0,0,0.1,0V77.8z M80.9,83c0,11.1-5.9,17.8-15.4,17.8c-2,0-3.9-0.2-5.1-0.3
	c-0.5-0.8-0.8-1.9-0.8-3.4c-0.2-2.8-0.2-5.3-0.2-19.2v-8.7c0,0,0,0,0.1,0c1.3-0.8,5.4-1.4,9.3-1.4c2.1,0,4.6,0.3,6.7,1.7
	C78.6,71.4,80.9,76.2,80.9,83z M71.6,64.3c-0.4,0.4-0.6,0.5-1.2,0.5l-9,0.2c-0.9-0.8-1.2-2.4-1.5-4.3c-0.2-2.1-0.4-5.1-0.4-8.9
	s0.2-6.8,0.4-8.9c0.3-1.9,0.6-3.5,1.5-4.3l9.1,0.1c0.5,0,0.8,0.2,1.2,0.5c1.7,2.2,5.6,7.8,9.2,12.5C77.2,56.6,73.3,62.1,71.6,64.3z"
	/>
</svg>
