<?xml version="1.0" encoding="utf-8"?>
<!-- Generator: Adobe Illustrator 21.0.2, SVG Export Plug-In . SVG Version: 6.00 Build 0)  -->
<svg version="1.1" id="Layer_1" xmlns="http://www.w3.org/2000/svg" xmlns:xlink="http://www.w3.org/1999/xlink" x="0px" y="0px"
	 viewBox="0 0 50 50" style="enable-background:new 0 0 50 50;" xml:space="preserve">
<style type="text/css">
	.st0{fill:#FFFFFF;}
</style>
<path class="st0" d="M49.9,9.5c-1.8,0.8-3.8,1.4-5.9,1.6c2.1-1.3,3.7-3.3,4.5-5.7c-2,1.2-4.2,2-6.5,2.5c-1.9-2-4.5-3.2-7.5-3.2
	c-5.6,0-10.2,4.6-10.2,10.2c0,0.8,0.1,1.6,0.3,2.3c-8.5-0.4-16-4.5-21.1-10.7c-0.9,1.5-1.4,3.3-1.4,5.1c0,3.5,1.8,6.7,4.5,8.5
	C5,20.2,3.5,19.8,2.1,19c0,0,0,0.1,0,0.1c0,5,3.5,9.1,8.2,10c-0.9,0.2-1.8,0.4-2.7,0.4c-0.7,0-1.3-0.1-1.9-0.2
	c1.3,4.1,5.1,7,9.6,7.1c-3.5,2.7-7.9,4.4-12.7,4.4c-0.8,0-1.6,0-2.4-0.1c4.5,2.9,9.9,4.6,15.7,4.6c18.8,0,29.1-15.6,29.1-29.1
	c0-0.4,0-0.9,0-1.3C46.8,13.4,48.5,11.6,49.9,9.5z"/>
</svg>
